<?xml version="1.0" encoding="UTF-8"?>
<svg width="100px" height="100px" viewBox="0 0 100 100" version="1.1" xmlns="http://www.w3.org/2000/svg" xmlns:xlink="http://www.w3.org/1999/xlink">
    <!-- Generator: Sketch 52.4 (67378) - http://www.bohemiancoding.com/sketch -->
    <title>jr-logo-primary</title>
    <desc>Created with Sketch.</desc>
    <g id="jr-logo-primary" stroke="none" stroke-width="1" fill="none" fill-rule="evenodd">
        <g id="logo-new">
            <path d="M50,9.09685864 L90.9031414,9.09685864 L90.9031414,50 C90.9031414,72.5901812 72.5901812,90.9031414 50,90.9031414 L50,90.9031414 C27.4098188,90.9031414 9.09685864,72.5901812 9.09685864,50 L9.09685864,50 C9.09685864,27.4098188 27.4098188,9.09685864 50,9.09685864 Z" id="teardrop-fill" fill="#DC334A"></path>
            <path d="M50,9.09685864 C27.4098188,9.09685864 9.09685864,27.4098188 9.09685864,50 C9.09685864,72.5901812 27.4098188,90.9031414 50,90.9031414 C72.5901812,90.9031414 90.9031414,72.5901812 90.9031414,50 L90.9031414,9.09685864 L50,9.09685864 Z M50,0.00727166958 L99.9927283,0.00727166958 L99.9927283,50 C99.9927283,77.6102215 77.6102215,99.9927283 50,99.9927283 C22.3897785,99.9927283 0.00727166958,77.6102215 0.00727166958,50 C0.00727166958,22.3897785 22.3897785,0.00727166958 50,0.00727166958 Z" id="teardrop-outline" fill="#FFFFFF" fill-rule="nonzero"></path>
            <path d="M48.7632069,22.116725 L48.7632069,19.9108079 L60.4349129,19.9108079 C63.6397291,19.9108079 66.6505781,20.7329123 69.4675503,22.3771458 C72.2845225,24.0213792 74.5247983,26.2272742 76.1884449,28.9948969 C77.8520915,31.7625196 78.6839024,34.7190317 78.6839024,37.8645217 C78.6839024,41.500218 77.9031229,44.6967232 76.3415405,47.4541333 C74.779958,50.2115434 72.6621575,52.366376 69.9880752,53.9186958 L75.6832296,70.6469001 L59.7612924,70.6469001 L55.2602833,56.4309902 L48.7632069,56.4309902 L48.7632069,22.116725 Z M48.7632069,33.1463102 L48.7632069,40.9895709 L60.4349129,40.9895709 C61.3126651,40.9895709 62.0015882,40.7597901 62.5017028,40.3002218 C63.0018174,39.8406534 63.251871,39.0287615 63.251871,37.8645217 C63.251871,37.1496376 62.9814049,36.5522077 62.4404646,36.0722141 C61.8995242,35.5922205 61.2310137,35.3522273 60.4349129,35.3522273 L48.7632069,35.3522273 L48.7632069,33.1463102 Z" id="R" fill="#FFFFFF"></path>
            <path d="M26.6791813,59.6545703 L22.9130308,59.6545703 L22.9130308,57.4486533 L26.6791813,57.4486533 C27.761062,57.4486533 28.6694198,57.0401542 29.4042821,56.2231438 C30.1391444,55.4061334 30.5065701,54.3236109 30.5065701,52.9755437 L30.5065701,35.913644 C30.5065701,35.3048672 31.0000812,34.811356 31.608858,34.811356 C32.2176349,34.811356 32.711146,35.3048672 32.711146,35.913644 L32.711146,52.9755437 C32.711146,54.9159434 32.1293887,56.514196 30.9658567,57.7703495 C29.8023247,59.026503 28.3734472,59.6545703 26.6791813,59.6545703 Z M26.6791813,64.0664044 L22.9130308,64.0664044 L22.9130308,61.8604874 L26.6791813,61.8604874 C28.9654197,61.8604874 30.9097137,60.9924269 32.5121218,59.2562798 C34.1145299,57.5201327 34.9157219,55.4265749 34.9157219,52.9755437 L34.9157219,30.6053252 C34.9157219,29.9965484 35.409233,29.5030373 36.0180099,29.5030373 C36.6267867,29.5030373 37.1202978,29.9965484 37.1202978,30.6053252 L37.1202978,52.9755437 C37.1202978,56.0393327 36.1047742,58.6537268 34.0736964,60.8188043 C32.0426186,62.9838819 29.5778049,64.0664044 26.6791813,64.0664044 Z M26.6791813,68.4782385 L22.9130308,68.4782385 L22.9130308,66.2723215 L26.6791813,66.2723215 C30.1901902,66.2723215 33.1755235,64.9753369 35.635271,62.3813289 C38.0950185,59.7873209 39.3248737,56.6520905 39.3248737,52.9755437 L39.3248737,25.2970064 C39.3248737,24.6882296 39.8183849,24.1947185 40.4271617,24.1947185 C41.0359385,24.1947185 41.5294496,24.6882296 41.5294496,25.2970064 L41.5294496,52.9755437 C41.5294496,55.7738043 40.8711454,58.3626672 39.5545171,60.74221 C38.2378888,63.1217528 36.4364825,65.0059548 34.1502442,66.3948724 C31.8640059,67.7837901 29.3736765,68.4782385 26.6791813,68.4782385 Z M26.6791813,72.8900726 L22.9130308,72.8900726 L22.9130308,70.6841556 L26.6791813,70.6841556 C29.0062453,70.6841556 31.2210055,70.2143817 33.3235282,69.2748197 C35.4260509,68.3352577 37.2376635,67.0740169 38.7584202,65.4910592 C40.2791769,63.9081016 41.4886197,62.0238996 42.3867847,59.8383968 C43.2849498,57.6528939 43.7340256,55.3652991 43.7340256,52.9755437 L43.7340256,21.0503514 C43.7340256,20.4415746 44.2275367,19.9480634 44.8363135,19.9480634 C45.4450903,19.9480634 45.9386015,20.4415746 45.9386015,21.0503514 L45.9386015,52.9755437 C45.9386015,55.671678 45.4333912,58.2452222 44.4229555,60.6962534 C43.4125199,63.1472846 42.04488,65.2663735 40.3199948,67.0535838 C38.5951097,68.840794 36.5436498,70.2603283 34.1655537,71.3122292 C31.7874576,72.3641301 29.2920251,72.8900726 26.6791813,72.8900726 Z" id="J" fill="#FFFFFF"></path>
            <path d="M68.3609657,19.8225713 L78.7230948,19.8225713 L78.7230948,30.1847004 C77.6351568,27.476611 76.3131731,25.3445516 74.7571438,23.7885223 C73.2011145,22.232493 71.0690551,20.9105093 68.3609657,19.8225713 Z" id="arrow" fill="#FFFFFF"></path>
        </g>
    </g>
</svg>